# xmcd
#
# Track frame offsets:
#	150
#	14935
#	28700
#	46900
#	62525
#	80632
#	96087
#	110845
#	120977
#	136840
#	147315
#
# Disc length: 2130 seconds
#
# Revision: 0
# Processed by: cddbd v1.5.2PL0 Copyright (c) Steve Scherf et al.
# Submitted via: EasyCDDAExtractor 10.2.0.1
#
DISCID=9708500b
DTITLE=The Bradleys - Crristmas With THe Bradleys
DYEAR=1900
DGENRE=Gospel
TTITLE0=Christmastime Around The World
TTITLE1=Night Watch
TTITLE2=Star Of The East
TTITLE3=The Little Drummer Boy
TTITLE4=King's Lullaby
TTITLE5=The King Is Born
TTITLE6=Silent Night
TTITLE7=Once In Royal David's City
TTITLE8=Beautiful Star Of Bethleham
TTITLE9=Away In The Manger
TTITLE10=We Three Kings (Inst)
EXTD=
EXTT0=
EXTT1=
EXTT2=
EXTT3=
EXTT4=
EXTT5=
EXTT6=
EXTT7=
EXTT8=
EXTT9=
EXTT10=
PLAYORDER=
